<svg xmlns="http://www.w3.org/2000/svg" viewBox="0 0 32 32"><defs><linearGradient id="orange" x2="0" y2="1"><stop stop-color="#f7a340"/><stop offset="1" stop-color="#dc6123"/></linearGradient></defs><rect width="32" height="32" rx="7" fill="url(#orange)"/><path d="M6.5 15 C5 12 4.5 6 6.5 5.5 C8 5.3 11.5 9 12.5 10 C15 9 18 9 20 10 C22 7 24 5 25.5 5.5 C27 6 26.8 12 25.7 15 C28 19 26.8 23 23 25 C18 28 12 27 8 24 C4.5 22 4 18.5 6.5 15 Z" fill="#fff2dc" stroke="#493047" stroke-width="1.3" stroke-linecap="round" stroke-linejoin="round"/><path d="M7 8 Q8.7 9 10.5 11.6 L7.4 13 Z" fill="#f6b477" stroke="none" stroke-width="1" stroke-linecap="round" stroke-linejoin="round"/><path d="M24.4 8 Q22.8 9 21.5 11.6 L24.5 13 Z" fill="#f6b477" stroke="none" stroke-width="1" stroke-linecap="round" stroke-linejoin="round"/><ellipse cx="13.6" cy="21" rx="3.6" ry="2.6" fill="#fffaf0"/><ellipse cx="18.4" cy="21" rx="3.6" ry="2.6" fill="#fffaf0"/><ellipse cx="11.6" cy="17.4" rx="1.2" ry="1.7" fill="#493047"/><ellipse cx="20.4" cy="17.4" rx="1.2" ry="1.7" fill="#493047"/><ellipse cx="11.3" cy="16.8" rx="0.35" ry="0.5" fill="#fff"/><ellipse cx="20.1" cy="16.8" rx="0.35" ry="0.5" fill="#fff"/><path d="M14.5 20.3 Q16 19.4 17.5 20.3 L16 21.7 Z" fill="#d78583" stroke="#493047" stroke-width="0.6" stroke-linecap="round" stroke-linejoin="round"/><path d="M16 21.6 Q15.2 23.7 13.2 22.4" fill="none" stroke="#493047" stroke-width="0.85" stroke-linecap="round" stroke-linejoin="round"/><path d="M16 21.6 Q16.8 23.7 18.8 22.4" fill="none" stroke="#493047" stroke-width="0.85" stroke-linecap="round" stroke-linejoin="round"/><path d="M8.5 20.6 L4 19.6" fill="none" stroke="#493047" stroke-width="0.7" stroke-linecap="round" stroke-linejoin="round"/><path d="M8.5 22 L4.8 23" fill="none" stroke="#493047" stroke-width="0.7" stroke-linecap="round" stroke-linejoin="round"/><path d="M23.5 20.6 L28 19.6" fill="none" stroke="#493047" stroke-width="0.7" stroke-linecap="round" stroke-linejoin="round"/><path d="M23.5 22 L27.2 23" fill="none" stroke="#493047" stroke-width="0.7" stroke-linecap="round" stroke-linejoin="round"/></svg>
